#!OML:ASF H:\ManfredETheater\Project 1\Capture day 1\Session 1\subject.ASF
:FULLY-SPECIFIED
:DEGREES
93
root 0.705975 16.2221 4.29326 -43.3373 -14.0664 -209.24
lowerback 32.5344 -5.36351 1.57877
upperback 6.37524 -7.22597 -4.93726
thorax -10.4763 -3.41942 -3.32085
lowerneck -10.7082 -6.17812 -6.92165
upperneck -8.14439 -8.585 -7.17382
head -0.867452 -4.48819 -1.3049
rclavicle -8.42847e-014 7.31528e-014
rhumerus 26.6208 -9.39505 -20.7139
rradius 96.3764
rwrist 15.4994
rhand -43.5877 12.0878
rfingers 7.12502
rthumb -16.4243 -17.2369
lclavicle -8.42847e-014 7.31528e-014
lhumerus 96.8461 -11.1781 50.6116
lradius 54.8248
lwrist -20.3328
lhand -55.03 -15.6796
lfingers 7.12502
lthumb -27.4089 12.3468
rfemur -89.6707 -16.7301 38.1033
rtibia 90.6601
rfoot 9.01731 5.24493
rtoes -31.2765
lfemur -31.3018 12.1351 9.58724
ltibia 68.722
lfoot 13.2573 -5.44968
ltoes 8.57351
94
root 0.653879 15.9705 3.82054 -41.6102 -13.1428 -209.737
lowerback 32.2725 -5.49556 1.5257
upperback 6.49674 -7.42688 -5.12492
thorax -10.2778 -3.50822 -3.43486
lowerneck -10.8731 -6.08489 -7.1493
upperneck -7.76214 -8.36322 -7.3609
head -0.717597 -4.37929 -1.3363
rclavicle 6.04305e-014 -1.90833e-014
rhumerus 24.1687 -7.4941 -19.4518
rradius 99.3473
rwrist 16.2045
rhand -43.0127 9.55533
rfingers 7.12502
rthumb -15.8706 -19.8143
lclavicle 6.04305e-014 -1.90833e-014
lhumerus 95.3291 -12.8348 51.5511
lradius 57.4343
lwrist -23.1559
lhand -56.8854 -18.1636
lfingers 7.12502
lthumb -29.1821 9.56866
rfemur -89.5859 -17.0048 38.4175
rtibia 93.2488
rfoot 9.63615 4.80221
rtoes -30.6844
lfemur -31.9485 13.1711 9.5393
ltibia 69.9433
lfoot 13.5793 -5.76671
ltoes 8.92036
95
root 0.604808 15.7079 3.34857 -39.9407 -12.1359 -210.223
lowerback 32.0611 -5.62974 1.46087
upperback 6.64137 -7.63756 -5.33838
thorax -10.0784 -3.60097 -3.56467
lowerneck -10.996 -5.9796 -7.3492
upperneck -7.34295 -8.12581 -7.57499
head -0.564435 -4.2641 -1.37901
rclavicle -2.70347e-014 5.40694e-014
rhumerus 21.7817 -5.45045 -18.5626
rradius 102.103
rwrist 17.5385
rhand -42.2252 6.47699
rfingers 7.12502
rthumb -15.1121 -22.9513
lclavicle -2.70347e-014 5.40694e-014
lhumerus 93.6396 -14.4475 52.4389
lradius 60.4013
lwrist -25.3156
lhand -57.8205 -20.7546
lfingers 7.12502
lthumb -30.0746 6.81917
rfemur -89.4549 -17.3212 38.6677
rtibia 95.6938
rfoot 10.3022 4.44255
rtoes -30.2056
lfemur -32.6213 14.2347 9.48623
ltibia 71.3134
lfoot 13.9413 -5.96779
ltoes 9.30111
96
root 0.559336 15.4346 2.87689 -38.3261 -11.0562 -210.698
lowerback 31.91 -5.76516 1.37093
upperback 6.79841 -7.85961 -5.56857
thorax -9.89128 -3.69783 -3.69171
lowerneck -11.0232 -5.8544 -7.52218
upperneck -6.90513 -7.87137 -7.83817
head -0.42286 -4.14017 -1.43751
rclavicle 9.85972e-014 5.08889e-014
rhumerus 19.5068 -3.25274 -18.0086
rradius 104.549
rwrist 19.5255
rhand -41.4801 2.93873
rfingers 7.12502
rthumb -14.3943 -26.5422
lclavicle 9.85972e-014 5.08889e-014
lhumerus 91.9066 -15.9398 53.1251
lradius 63.4873
lwrist -26.7372
lhand -58.0826 -23.6253
lfingers 7.12502
lthumb -30.3246 3.90268
rfemur -89.2941 -17.6648 38.8744
rtibia 97.9977
rfoot 11.007 4.18558
rtoes -29.9221
lfemur -33.3142 15.3167 9.45578
ltibia 72.822
lfoot 14.3071 -6.0817
ltoes 9.62296
97
root 0.517014 15.1507 2.40607 -36.761 -9.91272 -211.155
lowerback 31.808 -5.90081 1.25165
upperback 6.96712 -8.093 -5.81533
thorax -9.71253 -3.79887 -3.81414
lowerneck -10.9409 -5.71825 -7.67825
upperneck -6.4601 -7.61336 -8.12253
head -0.297192 -4.01325 -1.50121
rclavicle 1.95604e-013 9.54166e-015
rhumerus 17.3736 -0.90962 -17.7278
rradius 106.672
rwrist 21.9678
rhand -40.8934 -0.892744
rfingers 7.12502
rthumb -13.8289 -30.4131
lclavicle 1.95604e-013 9.54166e-015
lhumerus 90.2591 -17.2536 53.4583
lradius 66.4793
lwrist -27.4727
lhand -58.0773 -26.5882
lfingers 7.12502
lthumb -30.3196 0.940698
rfemur -89.1161 -18.0252 39.0416
rtibia 100.16
rfoot 11.771 4.01458
rtoes -29.676
lfemur -34.018 16.4052 9.45994
ltibia 74.4588
lfoot 14.6337 -6.17084
ltoes 9.74624
98
root 0.477605 14.8564 1.93567 -35.2408 -8.72132 -211.602
lowerback 31.7541 -6.03524 1.11385
upperback 7.15254 -8.33052 -6.0717
thorax -9.53551 -3.90062 -3.93329
lowerneck -10.775 -5.58345 -7.81762
upperneck -5.99436 -7.36488 -8.41198
head -0.178521 -3.89148 -1.56689
rclavicle 1.60618e-013 1.27222e-014
rhumerus 15.3836 1.55225 -17.6367
rradius 108.505
rwrist 24.6156
rhand -40.4194 -4.9147
rfingers 7.12502
rthumb -13.3721 -34.4656
lclavicle 1.60618e-013 1.27222e-014
lhumerus 88.7967 -18.3871 53.4365
lradius 69.16
lwrist -27.782
lhand -58.0585 -29.5388
lfingers 7.12502
lthumb -30.3017 -2.00662
rfemur -88.9384 -18.3939 39.2041
rtibia 102.186
rfoot 12.5957 3.92734
rtoes -29.5685
lfemur -34.7278 17.494 9.52977
ltibia 76.2109
lfoot 14.9143 -6.30995
ltoes 9.66018
99
root 0.44081 14.5519 1.46651 -33.7584 -7.49311 -212.034
lowerback 31.7432 -6.15891 0.959531
upperback 7.34889 -8.55751 -6.32804
thorax -9.36166 -3.99623 -4.04575
lowerneck -10.5298 -5.44794 -7.95411
upperneck -5.48004 -7.11923 -8.7155
head -0.0572553 -3.77296 -1.63593
rclavicle 1.90833e-014 1.59028e-014
rhumerus 13.5138 4.11609 -17.6396
rradius 110.098
rwrist 27.2627
rhand -39.9559 -8.99123
rfingers 7.12502
rthumb -12.9253 -38.5709
lclavicle 1.90833e-014 1.59028e-014
lhumerus 87.5248 -19.3626 53.1775
lradius 71.424
lwrist -27.9649
lhand -58.1947 -32.357
lfingers 7.12502
lthumb -30.4316 -4.84875
rfemur -88.7685 -18.7523 39.3688
rtibia 104.076
rfoot 13.467 3.92485
rtoes -29.4395
lfemur -35.4403 18.5877 9.67657
ltibia 78.0694
lfoot 15.144 -6.56777
ltoes 9.3491
100
root 0.405799 14.2372 0.998383 -32.309 -6.23469 -212.461
lowerback 31.7679 -6.26578 0.811662
upperback 7.56434 -8.75712 -6.58034
thorax -9.17958 -4.07791 -4.16671
lowerneck -10.2163 -5.31327 -8.08304
upperneck -4.92442 -6.87825 -9.02211
head 0.0662201 -3.65875 -1.7061
rclavicle 1.11319e-014 -6.36111e-015
rhumerus 11.7403 6.74898 -17.7107
rradius 111.535
rwrist 29.5373
rhand -39.2984 -12.9152
rfingers 7.12502
rthumb -12.2913 -42.534
lclavicle 1.11319e-014 -6.36111e-015
lhumerus 86.4395 -20.2064 52.7312
lradius 73.2849
lwrist -28.1559
lhand -58.5304 -35.3078
lfingers 7.12502
lthumb -30.7517 -7.85927
rfemur -88.6151 -19.0999 39.5478
rtibia 105.834
rfoot 14.3693 3.98559
rtoes -29.2262
lfemur -36.1555 19.6849 9.91194
ltibia 80.0234
lfoot 15.3271 -7.00314
ltoes 8.84721
101
root 0.37238 13.9128 0.531575 -30.88 -4.95884 -212.898
lowerback 31.8148 -6.33637 0.709755
upperback 7.82813 -8.88831 -6.82732
thorax -8.95288 -4.12609 -4.33388
lowerneck -9.958 -5.1999 -8.17454
upperneck -4.26637 -6.65089 -9.31735
head 0.231475 -3.56103 -1.7839
rclavicle -7.95139e-015 1.68569e-013
rhumerus 10.0049 8.98237 -18.0783
rradius 113.053
rwrist 29.8466
rhand -37.7271 -14.0363
rfingers 7.12502
rthumb -10.7761 -43.7399
lclavicle -7.95139e-015 1.68569e-013
lhumerus 85.6109 -20.9733 52.1025
lradius 74.8049
lwrist -28.3402
lhand -59.0174 -38.3686
lfingers 7.12502
lthumb -31.2159 -11.0085
rfemur -88.4982 -19.4232 39.7741
rtibia 107.468
rfoot 15.2775 4.08919
rtoes -28.9198
lfemur -36.8866 20.7981 10.2589
ltibia 82.0654
lfoot 15.4774 -7.65182
ltoes 8.2256
102
root 0.33995 13.5789 0.0662056 -29.4728 -3.64587 -213.357
lowerback 31.8834 -6.39104 0.65714
upperback 8.11443 -8.97604 -7.0606
thorax -8.71102 -4.15229 -4.52906
lowerneck -9.6618 -5.07862 -8.27724
upperneck -3.52085 -6.40283 -9.57434
head 0.421268 -3.45735 -1.84811
rclavicle -1.01778e-013 8.90555e-014
rhumerus 8.17792 11.2319 -18.8274
rradius 114.598
rwrist 29.604
rhand -35.8315 -15.5769
rfingers 7.12502
rthumb -8.94717 -45.3671
lclavicle -1.01778e-013 8.90555e-014
lhumerus 84.9536 -21.7064 51.3523
lradius 76.023
lwrist -28.4556
lhand -59.5777 -41.6086
lfingers 7.12502
lthumb -31.7497 -14.3528
rfemur -88.4323 -19.7524 40.0597
rtibia 108.987
rfoot 16.1627 4.2463
rtoes -28.5015
lfemur -37.6449 21.9152 10.7081
ltibia 84.1862
lfoot 15.5924 -8.5121
ltoes 7.5671
103
root 0.308556 13.2353 -0.39807 -28.0872 -2.28793 -213.857
lowerback 31.9736 -6.42839 0.668119
upperback 8.43946 -9.0118 -7.27751
thorax -8.43647 -4.1513 -4.7611
lowerneck -9.38136 -4.95495 -8.35317
upperneck -2.68714 -6.13954 -9.79479
head 0.643835 -3.35305 -1.90767
rclavicle 3.49861e-014 9.54166e-015
rhumerus 6.16091 13.2628 -20.1346
rradius 116.192
rwrist 28.5527
rhand -33.6555 -16.9815
rfingers 7.12502
rthumb -6.84703 -46.8508
lclavicle 3.49861e-014 9.54166e-015
lhumerus 84.4865 -22.4563 50.4951
lradius 77.0082
lwrist -28.457
lhand -60.1445 -45.093
lfingers 7.12502
lthumb -32.2894 -17.9456
rfemur -88.424 -20.0948 40.4314
rtibia 110.393
rfoot 16.9571 4.43251
rtoes -28.0771
lfemur -38.4436 23.0378 11.2671
ltibia 86.3733
lfoot 15.665 -9.5423
ltoes 7.01009
104
root 0.277471 12.8814 -0.860592 -26.7209 -0.860774 -214.394
lowerback 32.0715 -6.45229 0.727048
upperback 8.80259 -9.00498 -7.474
thorax -8.122 -4.12674 -5.01501
lowerneck -9.11991 -4.83924 -8.39811
upperneck -1.77285 -5.8771 -9.95866
head 0.897951 -3.25578 -1.95742
rclavicle -5.64548e-014 -3.49861e-014
rhumerus 3.96493 15.0373 -22.1303
rradius 117.643
rwrist 27.3327
rhand -31.6562 -18.7389
rfingers 7.12502
rthumb -4.9168 -48.6618
lclavicle -5.64548e-014 -3.49861e-014
lhumerus 84.1848 -23.2644 49.5764
lradius 77.7873
lwrist -28.3298
lhand -60.6138 -48.8105
lfingers 7.12502
lthumb -32.7359 -21.755
rfemur -88.4877 -20.4722 40.8843
rtibia 111.703
rfoot 17.6455 4.63964
rtoes -27.6511
lfemur -39.2949 24.1614 11.9061
ltibia 88.6149
lfoot 15.7003 -10.6365
ltoes 6.77891
105
root 0.247227 12.5171 -1.32157 -25.3761 0.662114 -214.962
lowerback 32.1928 -6.46906 0.789108
upperback 9.19583 -8.97622 -7.63395
thorax -7.77472 -4.08695 -5.24107
lowerneck -8.88444 -4.73456 -8.43788
upperneck -0.788585 -5.619 -10.0476
head 1.18288 -3.16624 -1.98741
rclavicle -5.1684e-015 -9.54166e-015
rhumerus 1.65038 16.4964 -24.8485
rradius 118.764
rwrist 26.6406
rhand -30.2885 -20.9662
rfingers 7.12502
rthumb -3.59605 -50.9157
lclavicle -5.1684e-015 -9.54166e-015
lhumerus 84.0043 -24.1265 48.6356
lradius 78.3973
lwrist -28.0964
lhand -60.963 -52.4559
lfingers 7.12502
lthumb -33.0681 -25.4701
rfemur -88.6402 -20.9015 41.4206
rtibia 112.926
rfoot 18.22 4.84137
rtoes -27.2207
lfemur -40.2126 25.2805 12.5991
ltibia 90.8956
lfoot 15.6877 -11.7118
ltoes 6.96236
